<svg xmlns="http://www.w3.org/2000/svg" viewBox="0 0 2768.18 1213.56"><defs><style>.cls-1{fill:#2b4f67;}.cls-2{fill:#fff;}.cls-3{fill:#233862;}.cls-4{fill:#d9935c;}.cls-5{fill:#cb7d45;}.cls-6{fill:#aa413e;}.cls-7{fill:#e88f62;}.cls-8{fill:#2b478b;}.cls-9{fill:#f1a34f;}.cls-10{fill:#466aa5;}.cls-11{fill:#25508e;}.cls-12{fill:#365da4;}.cls-13,.cls-34{fill:#d86713;}.cls-13{opacity:0.4;}.cls-13,.cls-35{isolation:isolate;}.cls-14{fill:#1c3051;}.cls-15{fill:#82b378;}.cls-16{fill:#5ea04e;}.cls-17{fill:#da935b;}.cls-18{fill:#cb8757;}.cls-19{fill:#cc8250;}.cls-20{fill:#739af0;}.cls-21{fill:#4a75cb;}.cls-22,.cls-35{fill:#d9dce1;}.cls-23{fill:#bbd9f9;}.cls-24{fill:#558fbf;}.cls-25{fill:#5e7385;}.cls-26{fill:#ffb27d;}.cls-27{fill:#99332b;}.cls-28{fill:#e8945b;}.cls-29{fill:#ffa412;}.cls-30{fill:#77a4e5;}.cls-31{fill:#b64c41;}.cls-32{fill:#e58435;}.cls-33{fill:#ffb973;}.cls-35{opacity:0.6;}.cls-36{fill:#2e3552;}</style></defs><title>Asset 1</title><g id="Layer_2" data-name="Layer 2"><g id="Layer_1-2" data-name="Layer 1"><path class="cls-1" d="M2719.47,1201.75c-4.24-68.16-32.51-129.86-82.3-176.7-51.63-48.56-117-78.7-180.12-109.18-56.37-27.22-134.65-59.29-154.91-124.83-21.44-69.41,30-135.36,62.52-191.74,68.5-118.77,128.66-277.76,49-406C2339.39,73.88,2183.31,30.3,2052.69,12c-136-19.13-276.37-14.5-411.76,7.78-139.48,23-273.63,71.07-385.67,159.06-56,44-103.08,96.66-152.72,147.39-23,23.48-47.43,47.51-77.23,62.17-32.2,15.83-67,14-101.65,9.12-73.15-10.38-144.45-29.85-218.36-35.59-71.54-5.55-143.7.21-212.6,20.78-133.84,40-259.2,133.11-341.91,245.21C61.67,748.68,33.22,898.78,56.23,1045.76c3.17,20.24-3.27-20.92,0,0A756.85,756.85,0,0,0,78.85,1145c1.89,6.34,14.94,56.8,19.68,56.8Z"/><path class="cls-1" d="M56.23,1045.74A756.85,756.85,0,0,0,78.85,1145c1.89,6.34,14.94,56.8,19.68,56.8H2719.47c-4.24-68.16-32.51-129.86-82.3-176.7-51.63-48.56-117-78.7-180.12-109.18-56.37-27.22-134.65-59.29-154.91-124.83-21.44-69.41,30-135.36,62.52-191.74,54.06-93.73,102.91-212.51,81.93-321.47H1149.22c-15.55,16.09-31,32.32-46.68,48.36-23,23.48-47.43,47.51-77.23,62.17-32.2,15.83-67,14-101.65,9.12-73.15-10.38-144.45-29.85-218.36-35.59-71.54-5.55-143.7.21-212.6,20.78-133.84,40-259.2,133.11-341.91,245.21C61.67,748.66,33.22,898.76,56.23,1045.74Z"/><path class="cls-2" d="M1787.87,336v856.29a12.09,12.09,0,0,1-12.07,12h-674a12.09,12.09,0,0,1-12.06-12V339q7.4-7.22,15-15.05h671.07A12.11,12.11,0,0,1,1787.87,336Z"/><path class="cls-3" d="M1223.26,1204.27s-.63-13.81-4.33-21.21-33.34-2.32-33.34-2.32-6.83,12.36-5.9,23.47Z"/><path class="cls-3" d="M1302.78,1204.27s-.64-13.81-4.34-21.21-33.34-2.32-33.34-2.32-6.82,12.36-5.9,23.47Z"/><path class="cls-4" d="M1204.09,618.18c3.71,2.68,37.2,20.17,37.2,20.17l35.33-25.18s-10.73-1.57-11-1.65c-3.19-.89-3-9.43-3.45-18.54q-.09-2.12-.24-4.23l-34.59-1.25v.44c0,.43-.06.89-.09,1.37l-.07,1a4.18,4.18,0,0,1-.08,1c-.63,8-2,19.3-4.51,20.62C1221.09,612.69,1211.22,612.57,1204.09,618.18Z"/><path class="cls-5" d="M1227,591.32c2.85,5.71,9.21,15.65,18.63,15.32,9-.32,14.13-8.5,16.47-13.66q-.09-2.12-.24-4.23l-34.59-1.25v.43l-.09,1.37-.07,1C1227.09,590.63,1227.09,591,1227,591.32Z"/><path class="cls-3" d="M1266,511.64s-16.68-16.62-36.36.33C1229.64,512,1241.34,509.54,1266,511.64Z"/><path class="cls-3" d="M1272.2,572.75a142,142,0,0,0,8.54-23.68c2.33-9.09.2-43.61-34.51-41.27a47,47,0,0,0-19.89,5.86c-7.83,4.48-19.41,14.54-9.61,45.26l2.36,10.35Z"/><path class="cls-4" d="M1223.65,587.27c9,8.56,20.09,20,44.07-1.13,4.7-4.13,4.38-10.48,4.65-19.6.33-10.79,2.93-17.4,1.73-23.62-1.44-7.45-7.8-10.81-21-12-24.26-2.11-36.52,3.36-34.89,15.39C1221.83,573.2,1214.54,578.54,1223.65,587.27Z"/><path class="cls-3" d="M1243.42,530.5s-14.38-.31-17.67,4.5-3.73,10.19-5.39,12.9a10.54,10.54,0,0,0-1.38,5.75l-3.19-21.46,19.46-3.87Z"/><path class="cls-6" d="M1187.61,765.7c0-.11-3.75-45.3-5.14-52.93-1-5.75,4-30.71,6.62-42.71-23.64-3.82-29.54-21.18-29.54-21.18s4.86-17.48,16-26.5c4.18-3.39,11.48-5.64,19-7.14,4.42-.88,8.91-1.49,12.86-1.91,7.17-.78,12.56-.93,12.56-.93s4.45,15.3,23.67,15.53,27.11-15.77,27.11-15.77,3.76.08,8.89.4c3.72.24,8.15.6,12.37,1.14a63,63,0,0,1,10.88,2.2c9.72,3.24,22.46,29.39,22.46,29.39-2.55,15.52-26.77,23.82-30.71,25.07h0l.23,6.26c2.28,6.54,7,21.08,7.79,31.29,1,13.49-4.6,60.44-4.63,60.76.2,5.6.6,12.75,1.36,19.67,4.24,11.47,30.34,65.51,20.47,136.63-20.59,148.25-2.73,181.49-10.63,237.08a150.88,150.88,0,0,1-4.42,22,7.41,7.41,0,0,1-6.08,5.14c-9.06,1.26-29.46,3.57-38.25.38-4.2-1.53-7.22-24.9-9.35-55-2-28.88-1.91-93.12-1.91-99.72,0-14.93-6.33-97.77-7.5-123.53a.57.57,0,0,0-.65-.49.56.56,0,0,0-.5.49h0c-1.77,30.59-6.82,272.9-17.75,278.29-8.35,4.12-28,1-37.44-.26a8.68,8.68,0,0,1-7.16-6.19c-11.75-40.41,1.44-140.17-14.77-258.11-9.64-70.13,15.72-123.66,20.28-136.13C1184.75,782.85,1186.35,773.73,1187.61,765.7Z"/><path class="cls-4" d="M1224.72,801.13c2.5,3.67,13.68,5.9,19,3.65s13.36,1.45,15.76.74c.17,0,53.58-34.38,63.82-52.59,10.34-18.37-.06-80.9-3.18-98-9.37,10.24-30.26,10.89-34,10.92h-.57l-1-.31c1.08,19.19,10.59,56.1,14.34,70.06a10.59,10.59,0,0,1-2.37,9.85c-15.66,17.33-30.15,31.56-37.83,42.14-1.21,1.07-3.66,2.89-5.64,1.93-2.74-1.32-11.42-6.18-18.18-.76S1222.22,797.45,1224.72,801.13Z"/><path class="cls-4" d="M1170.58,755.43c11.93,17.15,68.35,46.25,68.52,46.29a4.34,4.34,0,0,0,1.68-.13h.08c3.35-.75,9.35-3.51,13.86-2.08,5.48,1.74,16.4-1.54,18.54-5.43s-4-6.61-11.24-11.38-15.42.89-18,2.48c-1.55.93-3.6,0-5-.84h-.08c-.27-.17-.52-.34-.73-.49-8.46-9.59-23.73-22-40.51-37.31a13.42,13.42,0,0,1-4.2-12.1c2-12,5.18-65.42,4.53-69-18.2,4.33-29.57-3.1-33.69-6.58C1162.76,677.81,1158.82,738.52,1170.58,755.43Z"/><path class="cls-6" d="M1159.55,648.88s-5.17,33.74-3.92,40.93a84.42,84.42,0,0,0,52.18,15.31c30.62-1.56-26.19-61.58-26.19-61.58Z"/><path class="cls-6" d="M1325.29,645.27s11.08,26.59,14,34.15c0,0-24.89,33.49-56.46,22.87s-6.87-65.65-6.87-65.65Z"/><path class="cls-3" d="M1272.54,659.65c8.68,16.66,33.33,19.79,33.33,19.79-8-19.45,8.11-25.58,18.06-45.49s-7.64-33.1-7.64-33.1c10.88,2.08,13,16.67,13,16.67.93-9.71-7.18-26.15-32.87-29.4-18.81-2.37-23.35-8.7-24.44-11.93-.42,4.18-1.43,7.45-4.25,9.93-2,1.76-3.89,3.28-5.7,4.6,0,.76.08,1.52.11,2.27.11,2.56.18,5.08.3,7.39a13.09,13.09,0,0,1,1.81,13.72,22.77,22.77,0,0,0-4.46,11.11C1258.55,636.16,1266,647.15,1272.54,659.65Z"/><path class="cls-7" d="M1540.64,733.93c4.43,20.4,45.35,68.9,45.5,69a4,4,0,0,0,1.6.53h.08c3.38.58,10,.34,13.59,3.39,4.39,3.7,15.73,4.86,19.2,2.08s-1.16-7.63-6-14.81S1600,789,1597,789.5c-1.79.27-3.34-1.34-4.29-2.69l0-.07c-.18-.27-.35-.52-.48-.74-4.14-12.1-13.46-29.42-23.09-50a13.38,13.38,0,0,1,.76-12.78c6.44-10.28,19.5-31.63,27.9-48.77,1-5,2-9.61,2.72-13.14-18.47-3-26.11-14.2-28.58-19C1563.18,659.27,1536.26,713.81,1540.64,733.93Z"/><path class="cls-7" d="M1769.84,733.93c-4.43,20.4-45.35,68.9-45.5,69a4,4,0,0,1-1.6.53h-.08c-3.38.58-10,.34-13.59,3.39-4.39,3.7-15.73,4.86-19.2,2.08s1.16-7.63,6-14.81,14.58-5.09,17.58-4.62c1.8.27,3.34-1.34,4.29-2.69l.06-.07c.18-.27.35-.52.48-.74,4.13-12.1,13.45-29.42,23.09-50a13.41,13.41,0,0,0-.76-12.78c-6.44-10.28-19.5-31.63-27.9-48.77-1-5-2-9.61-2.72-13.14,18.46-3,26.1-14.2,28.57-19C1747.3,659.27,1774.21,713.81,1769.84,733.93Z"/><path class="cls-7" d="M1633.8,603.27c2.55-1.31,3.88-12.61,4.51-20.6a4,4,0,0,1,.08-1l.07-1c0-.48.07-.94.09-1.38v-.43h.8l-.29-.28c-9.1-8.7-1.81-14-5.45-40.89-1.62-12,10.63-17.49,34.87-15.38,13.21,1.14,19.57,4.5,21,12,1.21,6.21-1.39,12.82-1.72,23.61-.27,9.11,0,15.46-4.65,19.58a67.63,67.63,0,0,1-9.73,7.29c.38,8.93.29,17.23,3.43,18.1.28.08,11,1.65,11,1.65l-35.3,25.17s-33.48-17.48-37.18-20.16C1622.51,603.88,1632.35,604,1633.8,603.27Z"/><path class="cls-8" d="M1618.86,521.84a30.3,30.3,0,0,1,12.76-10.27c-6.59-4.34-4.74-10.36-4.41-16.91.38-7.65,7.84-10.9,7.84-10.9a17.11,17.11,0,0,0-6.12,2.67c2.68-5.35,10.14-8,22.77-7.46s17.8,9.76,17.8,9.76c0-3.63-5.74-9.76-5.74-9.76s15.3,6.89,16.83,20.67c.56,5-1.77,8.29-5,10.59,7.9,2.25,16.94,7,19,17.11,3.74,18.73-9.41,26.48-11,30.51,0,0-2.74,1.74-4.53-3.46s-7.59-1.68-4.9,3.74,1.78,13.85-5.42,19.5-22.88,4.64-24.13,7.35c0,0-6.17-7.06-11.69-11C1621.82,565.91,1605.54,540.89,1618.86,521.84Z"/><path class="cls-3" d="M1668,1204.27s12-.06,24.81-.06c11.49,0,5.92-15,3.7-21.57l-4.19-12.56a13.47,13.47,0,0,1-.51-6.55q2.31-13.56,4.13-25.36a81.44,81.44,0,0,1-27.51-.24c1.15,11,2.12,19.78,2.66,24.66a14.37,14.37,0,0,1-1.3,7.78C1653.7,1204.27,1668,1204.27,1668,1204.27Z"/><path class="cls-3" d="M1472.67,1204.27h69.9s6.1-4.75,3.33-15.85a50.3,50.3,0,0,1-1.12-14.48,35.07,35.07,0,0,1,4.69-15.66c3.33-5.77,8.69-15.47,14.38-27.66-6.41,1-17.38,1.45-31-3.64-2.65,14.75-4.92,27.13-6.18,34a20.22,20.22,0,0,1-5.13,10.18c-6.91,7.42-20.71,21.74-25.62,23.38C1489.32,1196.69,1472.67,1196.52,1472.67,1204.27Z"/><path class="cls-3" d="M1496,1194.48c4.91-1.64,18.71-16,25.62-23.38a20.22,20.22,0,0,0,5.13-10.18c1.26-6.86,3.53-19.24,6.18-34,6.88-38.18,16.37-92.24,17.73-107.26,4-44.09,27.09-190.65,32.47-224.48l-.3-.1c-3.29-1.2-3-8-1.81-11.24,2.32-6.4,9.38-18.65,20.83-45.08a5.09,5.09,0,0,0,.29-1.6c0-.45.07-1,.08-1.57v-3.52c0-1.34-.09-2.85-.18-4.49a6.7,6.7,0,0,0,0-1c-.86-15.25-3.61-40.9-5.84-56h0a1.1,1.1,0,0,0-.07-.47c-18.5-4-26.6-22.85-26.6-22.85,6.12-12.62,20.19-28.76,25.74-34.89a6.24,6.24,0,0,1,2.33-2.53c10.6-5.63,77.61-17.37,120.77,4.08h0s15.57,14.71,23,33.75a44.39,44.39,0,0,1-30.46,22.39c-3,11.2-16.45,62.18-15,69.58.58,2.87,3.69,8.17,7.39,14.51.34.57.68,1.16,1,1.75.69,1.19,1.4,2.4,2.1,3.64,1.41,2.47,2.83,5,4.16,7.61.67,1.29,1.32,2.59,1.93,3.88.92,1.94,1.76,3.87,2.49,5.76a49.7,49.7,0,0,1,1.8,5.54,32,32,0,0,1,.71,3.48,17.79,17.79,0,0,1-.1,6.26,4.83,4.83,0,0,1-1.94,2.52c2.16,5.77,5.72,15.66,8.55,25.16a118.85,118.85,0,0,1,4,17.25c1,8.37-26.48,173.49-25.91,181.29.76,10.31,8.48,25.1-6.12,119.88q-1.82,11.82-4.13,25.35a13.52,13.52,0,0,0,.51,6.56l4.19,12.56c2.22,6.59,7.79,21.57-3.7,21.57-12.8,0-24.81.06-24.81.06s-14.3.08,1.79-33.9a14.4,14.4,0,0,0,1.3-7.78c-.54-4.88-1.51-13.71-2.66-24.66-4-37.5-10-99.89-8.53-113.64,1.36-12.22-14.5-137-14.5-137a.8.8,0,0,0-1.17-.66.67.67,0,0,0-.43.56.17.17,0,0,0,0,.1l-55.16,146.38c.88,34.13-12.69,71.08-24.74,96.9-5.69,12.19-11,21.89-14.38,27.66a35.07,35.07,0,0,0-4.69,15.66,50.3,50.3,0,0,0,1.12,14.48c2.77,11.1-3.33,15.85-3.33,15.85h-69.89C1472.68,1196.52,1489.32,1196.69,1496,1194.48Z"/><path class="cls-8" d="M1331,512.41c6.67-4.09,17.33.79,17.33.79-3.68-5.18-17.13-3.48-17.13-3.48,26.85-5.72,32.4,11.5,32.83,13,19.43-17.53,50.54,19.85,50.54,19.85l-44.64,59.16s-4.07-9.42-9.45-6.48c-8.38,4.58-24.6-14-19.42-38.34a68.48,68.48,0,0,1,2-7.26,14.28,14.28,0,0,1-5.56,1.38c-4.88,0-12.26-12.45-13.25-16.63S1324.28,516.49,1331,512.41Z"/><path class="cls-4" d="M1452.85,863.7l-12.39,1.49s-27.67-71.22-28.29-88.61c-.2-5.66-1.13-17.08-2.31-29.9-2.42-26.54-5.84-59.1-5.84-59.1l-.72-13.06V636.27s15.49.75,25.76,7.31c3.4,2.16,4.72,3.77,5.33,6.09,5,19.31,7.14,64.73,7.26,97.94.07,18.51.08,32.87.83,36C1444.59,792.52,1447.51,839.73,1452.85,863.7Z"/><path class="cls-4" d="M1322,822.16c14-31.32,20.65-40.18,20.88-50,.18-7.8-31-127.14,16.53-137.37,4-1,10.71-15.4,10.63-38.53l1.79.35,30.08,6s-.69,9.47-.71,18.39c0,7.43.43,14.47,2.11,15.36l3.45.33s25.08,34.83,27.19,67.22-20.09,46.47.16,111.21C1454.78,881.16,1314.27,839.46,1322,822.16Z"/><path class="cls-5" d="M1401.9,602.53s-.69,9.47-.71,18.39c-16.83-.48-25.73-15.83-29.37-24.34Z"/><path class="cls-8" d="M1368.71,593.27s-8.82-13.93-10.94-25.85c-1.51-8.51,2.82-40,34.52-35.51a43.2,43.2,0,0,1,17.85,6.75c6.89,4.65,16.82,14.68,5.71,42.21l-2.88,9.29Z"/><path class="cls-4" d="M1407.52,611s-39.83.66-39.86-24.15-5.18-41.43,20.25-42.9,30.37,8,32.4,16.27S1417.88,610.17,1407.52,611Z"/><path class="cls-3" d="M1357.25,1122.7a393,393,0,0,0,25.11,70.41l13.13-.91s-6.44-30.64-6.07-72c.26-28.94,3.84-63.14,15.27-95.8,39.3-112.23,33-193.91,33-193.91l-73.9,8.64-3.44.41c-.31,33.94-1.19,80-2,116-.68,32.4-1.28,56.68-1.28,56.68C1342.87,1042.82,1348,1086,1357.25,1122.7Z"/><path class="cls-8" d="M1314.86,1116.33c4.25,45.35,23,74.67,23,74.67l6.28,4.57s5.94-32,10.14-70c4-36.12,9.49-74.35,15.7-86,24.64-46.28,32.06-221,32.06-221l-74.92-3.72c-7.54,12.67-10.82,33.44-11.6,57.07-2,59.62,12,137.35,14.13,148.6h0a4,4,0,0,1-.49,2.52C1314.21,1052.62,1312.09,1086.38,1314.86,1116.33Z"/><path class="cls-8" d="M1378.41,576.73c-16.74,4.3-24-.18-24-.18a331.23,331.23,0,0,1,3.1-35.57s24.33-9.19,48.21,1.83c2.61-2.23,7.26-3.85,13.4,3.6,9.23,11.19,1,31,1,31-3.79.44-4.68-12.56-6.67-18.88-1.46-4.65-6.25-9.39-8.68-11.58-.78,2.87-8.8,30.73-28.82,40a92.47,92.47,0,0,0,16-19.53C1388.09,571.78,1383.52,575.41,1378.41,576.73Z"/><path class="cls-9" d="M1313.09,850.76c1.59,5,7.07,7.3,20.31,5.93,8.09-.84,11.7-14.39,13.3-26,4.86,16.54,11.66,25.83,20.45,27.78,12.84,2.85,77.57,10.73,81.8-20,4.66-33.85-9.29-93.77-10-126.07a159.49,159.49,0,0,0,2.34-30c-.54-23-4.61-33.5-9.81-38.7a26.3,26.3,0,0,0-11.53-5.24c-3-.52-7.2-1.11-13.12-1.9a20.66,20.66,0,0,0-2.36-.19c1.08,2,15.75,24.17,14.6,29.86-1.19,6-53.18.6-56.77-2.68s-4.81-28.33-4.81-28.33-8.87.23-15.19,2.52c-8.16,3-14.34,8.43-15.46,11.43-10.78,28.85,7.28,52.9,8,75.28,2.48,71.8-21.55,107.11-22.21,120.28A17.75,17.75,0,0,0,1313.09,850.76Z"/><path class="cls-4" d="M1314.86,1116.33c4.25,45.35,23,74.67,23,74.67l6.39,5.82s5.83-33.21,10-71.22C1349.8,1125.93,1330.28,1126.64,1314.86,1116.33Z"/><path class="cls-4" d="M1357.25,1122.7a393,393,0,0,0,25.11,70.41l13.13-.91s-6.44-30.64-6.07-72C1385,1122.41,1375.77,1124.69,1357.25,1122.7Z"/><path class="cls-3" d="M1374.79,1204.12h8.39c2.81-.44,4.88-1.25,7.76-1.63,4.37-.57,6.39,1.22,6.79,1.63l.08.09h35.61c.9-1.28,0-4.25-.8-6.43a5.13,5.13,0,0,0-3.34-3c-3.77-1.09-11.22-2.06-18-8.24-3.84-3.46-18.52-12.74-18.52-12.74h-.08c-.33,0-1.86.48-8.54,6.12-3.46,2.91-9.34-4.11-9.34-4.11a8.29,8.29,0,0,0-1.93,2.62,8.74,8.74,0,0,0-.77,5.46c.53,3.21-1.18,9.18-2.55,13.21-.83,2.44-1.53,4.18-1.53,4.18S1367.58,1203.27,1374.79,1204.12Z"/><path class="cls-10" d="M1372.83,1178.36c2,1.41,6.22,4.18,9,4.55,3.78.49,10.86-9.16,10.86-9.16h-.08c-.33,0-1.86.48-8.54,6.12-3.46,2.91-9.34-4.11-9.34-4.11A8.38,8.38,0,0,0,1372.83,1178.36Z"/><path class="cls-10" d="M1374.79,1204.12h8.39c2.81-.44,4.88-1.25,7.76-1.63,4.37-.57,6.39,1.22,6.79,1.63l.08.09h35.61c.9-1.28,0-4.25-.8-6.43-1.09-1-1.39,4.18-2,5s-29,.3-30.7-.9-6.57-3.29-13.44-1.64c-6,1.43-14.8-2.24-17-3.21-.83,2.44-1.53,4.18-1.53,4.18S1367.58,1203.27,1374.79,1204.12Z"/><path class="cls-11" d="M1408,884.79s-22.8,77.7-20,85c0,0,30.62,5.66,44.68,2.91Z"/><path class="cls-12" d="M1442.68,886.85s11.22,78.43,4,83.12-44.87,2.5-48.68,0,9.93-85.18,9.93-85.18h4.76s.86,14.44,8.36,16.53,13.13-6,16.93-15.41Z"/><path class="cls-3" d="M1330.09,1204.12h8.38c2.81-.44,4.89-1.25,7.77-1.63,4.37-.57,6.39,1.22,6.79,1.63l.07.09h35.62c.9-1.28,0-4.25-.81-6.43a5.06,5.06,0,0,0-3.33-3c-3.78-1.09-11.22-2.06-18-8.24-3.84-3.46-18.53-12.74-18.53-12.74H1348c-.32,0-1.85.48-8.54,6.12-3.45,2.91-9.34-4.11-9.34-4.11a8.44,8.44,0,0,0-1.93,2.62,8.88,8.88,0,0,0-.76,5.46c.53,3.21-1.18,9.18-2.55,13.21-.83,2.44-1.53,4.18-1.53,4.18S1322.84,1203.27,1330.09,1204.12Z"/><path class="cls-10" d="M1328.09,1178.36c2,1.41,6.23,4.18,9,4.55,3.79.49,10.86-9.16,10.86-9.16h-.08c-.32,0-1.85.48-8.54,6.12-3.45,2.91-9.34-4.11-9.34-4.11A8.38,8.38,0,0,0,1328.09,1178.36Z"/><path class="cls-10" d="M1330.09,1204.12h8.38c2.81-.44,4.89-1.25,7.77-1.63,4.37-.57,6.39,1.22,6.79,1.63l.07.09h35.62c.9-1.28,0-4.25-.81-6.43-1.08-1-1.38,4.18-2,5s-29.06.3-30.7-.9-6.57-3.29-13.44-1.64c-6,1.43-14.8-2.24-17-3.21-.83,2.44-1.53,4.18-1.53,4.18S1322.84,1203.27,1330.09,1204.12Z"/><path class="cls-13" d="M1312.6,844.77c8.89-3.38,20.3-12.37,34-32.52,36.28-53.36,3.09-116.06-1.37-117.23-2.93-.78-7.59,17.2-10.41,29.47C1337.29,796.27,1313.26,831.6,1312.6,844.77Z"/><path class="cls-4" d="M1349.25,658.2c3.72,1.56,4.82,5.65,5.81,7.83,8.26,18.16,18.25,61.76,24,94.46,3.23,18.22,5.69,32.37,7,35.37,3,6.93,11,39.76,19,63.72h0s11,8.21,16,10.71,12.81,25.94-3.44,22.19-19.61-16-19.61-16S1358.57,811,1355,794c-1.17-5.54-4-16.63-7.38-29.06-6.93-25.74-15.87-57.23-15.87-57.23L1328.82,695l-6.51-39.25S1338,653.5,1349.25,658.2Z"/><path class="cls-9" d="M1342.22,637.79s-32,6.85-20.54,46c0,0,10.73,9.06,45.54,3.44Z"/><path class="cls-4" d="M1452.85,863.7s7,25.34-10.2,30.65c0,0-5,1.79-10.31-5.67s8.12-23.49,8.12-23.49Z"/><path class="cls-14" d="M1664.71,1204.27H1729c1.6-.81,2.39-3.67,2.71-7.17.7-7.35-.63-17.54-.63-17.54s-22.3-17.62-25.27-4-21,19.82-31.22,21.54C1667.72,1198.16,1665.47,1201.88,1664.71,1204.27Z"/><path class="cls-3" d="M1722.09,1204.27h66.84c4-4.24,1.47-24.75,1.47-24.75s-22.17-17.79-25.24-4.2-21.11,19.65-31.38,21.3c-.74.13-1.43.28-2.09.46A15.68,15.68,0,0,0,1722.09,1204.27Z"/><path class="cls-8" d="M1777.62,839.27s-.18,2.43-.5,6.82c-2.06,28.26-10.1,137.53-15.53,198.4-.21,2.21-.4,4.36-.59,6.44l-.3,3.3a660.46,660.46,0,0,1-13.6,81c-6.66,29.18-12.93,49-12.93,49-19.85,3-32.19-5.15-32.19-5.15s-3-46-3.55-73.73c-.2-9-1.86-39.8-4-77.26-1.67-29-3.62-61.94-5.43-91.91-.09-1.6-.18-3.2-.28-4.77-2.91-48.47-5.36-87.95-5.36-87.95l34.9-1.52Z"/><path class="cls-3" d="M1747.09,1135.27l-52.67-107.18c-1.67-29-3.62-61.94-5.43-91.91-.09-1.6-.18-3.2-.28-4.77-2.91-48.47-5.36-87.95-5.36-87.95l34.9-1.52,58.86,4.23Z"/><path class="cls-8" d="M1689.77,844s24.22,162.15,46.69,241,21.7,100.35,21.7,100.35,24,6.51,35,1c0,0,13.66-146.52-.35-186.34-9.26-26.34-14.54-81.65-10.77-101.28s8.38-59.16,8.38-59.16Z"/><path class="cls-4" d="M1740.25,630.58l36.63-8.33a144.58,144.58,0,0,1-6.68-31.06c-.73-8.73-.23-17.61,3.13-24.06.2-.41.42-.81.65-1.19,1.51-2.5.74-3.72-1.08-4.1-3.26-.7-9.82,1.28-12.67,3.4-4.31,3.25-24.79,12.35-25.86,12.83h0a1.49,1.49,0,0,1-.09.42h0c-.15.69-.45,2.16-.77,4.21C1732,592.32,1729.94,614.67,1740.25,630.58Z"/><path class="cls-15" d="M1780.85,857.27c-8,5-20.14,6.38-33.45,5.49-15.54-1-32.59-5.14-46.14-10a108.13,108.13,0,0,1-18-8c-20-11.78-16.36-25.9-13.12-79.29,3.3-54.49,40.47-123.24,47.12-134.73,11.84-20.45,59.68-10.22,59.68-10.22,10.33,5.62,13.22,22.73,13.12,44.87-.12,24.61-3.94,55.44-5.38,83.66-1.2,23.33,2.14,44.18,4.46,61.45C1792.09,833,1793.41,849.33,1780.85,857.27Z"/><path class="cls-16" d="M1789.09,810.52c-10.28,19.09-29.7,40.17-41.69,52.26-15.54-1-32.59-5.14-46.14-10-5.08-14.16-6.43-37.43.89-75.35,5.57-28.92,41.33-144.54,41.33-144.54,24.16-1.9,38.42,11.94,46.53,32.49-.12,24.61,1.45,55.35,0,83.57C1788.81,772.27,1786.77,793.27,1789.09,810.52Z"/><path class="cls-9" d="M1646,946.35l14.3-53.71a11.94,11.94,0,0,1,14.57-8.44l22.74,6,1.75-6.55a18.77,18.77,0,0,1,22.9-13.27l17.45,4.65a18.77,18.77,0,0,1,13.27,22.9l-1.75,6.55,22.74,6.07a11.93,11.93,0,0,1,8.44,14.56l-14.27,53.76a11.92,11.92,0,0,1-14.57,8.44l-99.1-26.39A11.94,11.94,0,0,1,1646,946.35Zm102.45-49.58a14.07,14.07,0,0,0-9.94-17.16L1721,875l-.71-.17a14.08,14.08,0,0,0-16.45,10.11l-1.75,6.56,44.57,11.87Z"/><path class="cls-17" d="M1719.29,859.36s-10.93,17.17-5.13,26.91,26,5.18,28-.11,1.62-31.39,1.62-31.39Z"/><path class="cls-15" d="M1782.73,672.71s-8.09,66.39-9.45,94-27.06,99.77-27.06,99.77-14.58.42-20.24-.61a23,23,0,0,1-10.27-4.4s9.26-86.38,1.78-120.06S1712.94,641,1712.94,641s5.85-14.13,36.18-8C1785.09,640.27,1782.73,672.71,1782.73,672.71Z"/><path class="cls-18" d="M1733.46,582.75c4,.17,29.27,1.55,36,7.91a4,4,0,0,0,.7.53c-.73-8.73-.23-17.61,3.13-24.06-.15-2-.3-3.87-.43-5.29-3.26-.7-9.82,1.28-12.67,3.4-4.31,3.25-24.79,12.35-25.86,12.83l-.13.44h0C1734.09,579.27,1733.78,580.7,1733.46,582.75Z"/><path class="cls-4" d="M1717.3,580.27s41.3,10.13,47.22-15.7,15.22-41.9-10.9-49.46-33.53,1.12-37.6,9.26S1706.7,577,1717.3,580.27Z"/><path class="cls-3" d="M1770.22,575.37a.65.65,0,0,0,.92-.06.66.66,0,0,0,.15-.34c.25-1.67,1.65-5.27,7.18-12.78,9.1-12.37,12.93-8.65,13.73-22.28s6.3-21.57-9.07-31.26-12.43-17.8-21.83-20.25-23.61,4.66-31.68,2.59-35.31,29.85-19.36,38.56c0,0,7.58.77,13.09-2.25s25.25-5.33,27.24.74C1752.47,533.81,1762.09,567.76,1770.22,575.37Z"/><path class="cls-15" d="M1771.87,589.55s6.89,26.43,5,31c0,0-46.25,3.72-65.26,20.44,0,0,8.5-25,16.07-31S1771.87,589.55,1771.87,589.55Z"/><path class="cls-19" d="M1547.4,1196.47c-.61,7.54-11.26,7.54-23.33,6s-8.88,1.59-25.8,1.7-22.72-5.52-23.52-8c-.71-2.15,7.45-3.89,16.19-6l3.3-.79c9.85-2.43,16.41-9.74,24.87-16.1,8-6,2.4-35.26,2.4-35.26l24.87-8.87s-3.75,29.4-3.75,45.58c0,5.44,3.13,9,4,13.73A29.61,29.61,0,0,1,1547.4,1196.47Z"/><path class="cls-11" d="M1524.09,1202.52c-12.07-1.49-8.88,1.59-25.8,1.7s-22.72-5.52-23.52-8c-.71-2.15,7.45-3.89,16.19-6l.1.16a47.27,47.27,0,0,0,24.79,4.63c11.37-1,23-5.71,30.83-6.5a29.29,29.29,0,0,1,.74,7.86C1546.79,1204,1536.14,1204,1524.09,1202.52Z"/><path class="cls-12" d="M1470.82,827.46c.27,8.81,2.12,40.49,12.9,87.48q2.37,10.3,5.33,21.58c12.49,47.35,19.14,85,24.35,129.13a726.37,726.37,0,0,1,5,94.51s7.74,3,14.36,2.81c9.92-.33,13.94-3.22,13.94-3.22s9.15-54.48,12.21-102.59c1.58-24.82,1.54-47.94-2.22-61-.27-.93-.52-1.91-.76-3-1.54-6.75-2.5-16-3.07-26.7-.2-3.94-.34-8.07-.45-12.35-.23-10-.18-20.86,0-32,0-1.11,0-2.21.08-3.31.08-3.81.19-7.63.31-11.45,1.59-48.59,5.88-97.07,5.88-97.07s-7.38-.76-17.88-1.22C1515,808,1470.27,808.75,1470.82,827.46Z"/><path class="cls-4" d="M1583.78,1196.47c-.61,7.54-11.26,7.54-23.34,6s-8.88,1.59-25.8,1.7-22.71-5.52-23.51-8c-.72-2.15,7.45-3.89,16.18-6l3.3-.79c9.85-2.43,16.41-9.74,24.87-16.1,8-6,2.41-35.26,2.41-35.26l24.86-8.87s-3.75,29.4-3.75,45.58c0,5.44,3.13,9,4,13.73A30,30,0,0,1,1583.78,1196.47Z"/><path class="cls-11" d="M1469.72,827.46c.27,8.81,2.12,40.49,12.9,87.48,21.17,40.33,57.44,108.72,75.22,142.22l10.46,19.69-16.84-158-11.69-109.74C1513.91,808,1469.17,808.75,1469.72,827.46Z"/><path class="cls-12" d="M1515.37,809.37s27.58,137.46,32.24,212.28,10.48,136.75,10.48,136.75a36.37,36.37,0,0,0,12.93,1.78,47.5,47.5,0,0,0,13.07-2.67s27.34-112.56,18.28-157.62-1.51-86.62,2.84-124c6.23-53.59-17.75-78.49-34.49-95.47C1553.77,763.27,1515.37,809.37,1515.37,809.37Z"/><path class="cls-6" d="M1482.57,551.88c-3-22.34,3.47-58.24,48.21-53.12s59.41,48.83,50.66,68.47,13.29,24,20.47,44.94c6.17,18,8.54,40.32,18.26,50.23,31.35,32-28.58,82.6-65.26,72.59-66.8-18.24-75.41-21-73.75-73.3.85-26.8,21.56-37.46,8.22-45C1457.16,598.36,1489.45,602.44,1482.57,551.88Z"/><path class="cls-4" d="M1505.64,615.48c.39,0,2.35-.55,5.64-1.17a50.31,50.31,0,0,0,2.53-10.42,65.65,65.65,0,0,0-.06-17.93L1547,575.84c1.15,25.36,3.11,34.79,4.37,38.29a147.06,147.06,0,0,1,32,9.09s-21.22,121.38-12.1,144.55a245.52,245.52,0,0,1,12.58,43.73L1485,812.73s1.38-79.52-3.17-107.67S1505.64,615.48,1505.64,615.48Z"/><path class="cls-20" d="M1467.33,829.77c4.51,14.15,39.06,14.88,69.92,13.41.67,0,1.34-.06,2-.11,4.79-.26,9.48-.67,13.87-1.15a197.4,197.4,0,0,0,20.1-3.08c6-1.33,13.58-3.24,19.73-6.11,4.72-2.18,8.59-5,10.3-8.43-.21-1.1-.47-2.29-.79-3.55-4.16-16.55-16.72-46.63-19.91-62.45a41.08,41.08,0,0,1-1.18-6.14c-1.35-14.65.94-26.6,4.76-38.32h0l.18-.56c.11-.31.23-.77.39-1.38h0c.15-.56.31-1.23.48-2,.06-.24.13-.51.18-.8,2.65-11.39,8.43-40,10-43.92a29.92,29.92,0,0,0,1.13-4.1c.15-.67.29-1.4.43-2.16,1.55-8.61,1.4-25.19-3.8-30.92-7.26-8-39.31-13-39.31-13-5.06,7.66-14.19,28.55-35.69,25.13-12.43-2-14.35-25.33-14.35-25.33-13.36,1.77-16.77,3.73-16.77,3.73s-18,47.58-17.38,67c.72,23.33,5.68,59.37,3.32,84.5C1473.78,782.12,1465.18,823,1467.33,829.77Z"/><path class="cls-12" d="M1560.8,1203.64c-12.07-1.49-9.24.47-26.16.58s-22.71-5.52-23.51-8c-.72-2.15,7.45-3.89,16.18-6l.1.16a47.32,47.32,0,0,0,24.8,4.63c11.36-1,23-5.71,30.82-6.5a29.71,29.71,0,0,1,.75,7.86C1583.17,1204,1572.88,1205.13,1560.8,1203.64Z"/><path class="cls-3" d="M1474.09,897.84h7.67c2.21-4.15,5.6-10.4,9.3-16.69,11.79-20,16.45-23.36,19.19-24.06,5.87-1.48,13.53,8,30.31,37.6l1.79,3.15h7.19a11.29,11.29,0,0,1,11.25,11.25v36.77a11.27,11.27,0,0,1-11.25,11.25h-75.45a11.27,11.27,0,0,1-11.25-11.25V909.09A11.29,11.29,0,0,1,1474.09,897.84Zm62.4-.84c-3.48-6.13-8.74-15.4-13.86-23-8.42-12.48-11.13-12.38-11.23-12.39-3.75,1-14.81,18.38-24.35,36.2H1537Z"/><path class="cls-4" d="M1477,763.27c.75-6.91-20.65-117-14.16-130.7s32.77-16,32.77-16,7.09,120,10.22,137.93c2.18,12.45-.07,59.07-1.65,86.42a26.16,26.16,0,0,0,3.62,5.5c2.32,2.24,6.06,17.4-1.21,22.26s-15.52-6.07-16.7-12a163.07,163.07,0,0,1-1.78-16.66C1479.46,806.6,1476.37,769.06,1477,763.27Z"/><path class="cls-20" d="M1505.76,614.71s-38.24,3.34-42.92,15.38-9,25.17-9,25.17,22.93,15.56,52.87,14.18Z"/><path class="cls-21" d="M1555.49,741.5s22.39,64.47,47,79.25c-4.16-16.55-16.72-46.63-19.91-62.45a41.08,41.08,0,0,1-1.18-6.14c-1.35-14.65.94-26.6,4.76-38.32h0l.18-.56c.11-.31.23-.77.39-1.38h0c.15-.56.31-1.23.48-2,.06-.24.13-.51.18-.8,2.65-11.39,8.43-40,10-43.92a29.92,29.92,0,0,0,1.13-4.1c-1.1-1.81-2.11-2.45-3-1.65C1585.68,668.48,1555.49,741.5,1555.49,741.5Z"/><path class="cls-4" d="M1512,852.51c2.34-5.62,6.46-15.25,6.46-15.25h0c4.24-27.07,11.91-73.11,16.68-84.82,6.85-16.88,39.19-132.63,39.19-132.63s18.28,6.85,23.67,29.48c3.52,14.76-35.81,110.87-36.53,117.79-.62,5.89-12.08,43.46-28.18,74.75,0,0-1.42,9-.73,12.13s-4.63,17.85-13.38,17.85S1509.64,858.13,1512,852.51Z"/><path class="cls-20" d="M1556.67,670.88s33.43,6.56,50.93-13.75c0,0-5.62-20.94-12.49-29.21S1564,616.8,1564,616.8Z"/><path class="cls-5" d="M1513.81,603.89c20.75-1.54,33.17-28,33.17-28L1513.75,586A65.29,65.29,0,0,1,1513.81,603.89Z"/><path class="cls-4" d="M1509.09,592.06s40.58,0,40.21-25.24,4.63-42.28-21.3-43.38-30.82,8.63-32.74,17.09S1498.47,591.4,1509.09,592.06Z"/><path class="cls-6" d="M1514.43,519.82s1,8.4,16.6,19.87,17.57,37.08,17.57,37.08,13.51-45-.62-55.65S1514.43,519.82,1514.43,519.82Z"/><path class="cls-6" d="M1529.15,505.09s-21.31-2.7-37.23,20.8c-6.86,10.12-2.26,26.41,4.23,35.09,0,0,2.92-22,14.81-29S1529.15,505.09,1529.15,505.09Z"/><path class="cls-22" d="M2448.69,290.37a249,249,0,0,0-35.08-97.1q-6.49-10.46-13.82-20.13H1262.58q-3.67,2.79-7.32,5.65c-42.9,33.7-80.55,72.47-118.13,111.57Z"/><path class="cls-23" d="M2720,1212.11v1.38H111c-1.12-2.62-2.26-5.31-3.4-8.06H2719.65C2719.81,1207.63,2719.92,1209.86,2720,1212.11Z"/><path class="cls-24" d="M1192.28,323.92h-16.19v880.41h16.22a7.45,7.45,0,0,0,7.43-7.43V331.36A7.46,7.46,0,0,0,1192.28,323.92Z"/><path class="cls-24" d="M2057.29,323.92h-16.2v880.41h16.21a7.46,7.46,0,0,0,7.44-7.43V331.36A7.47,7.47,0,0,0,2057.29,323.92Z"/><path class="cls-25" d="M1182.28,323.92h-77.55q-7.59,7.83-15,15.05c-36,35.25-69.07,59.37-110,61.88-16.65,1-35.16-.42-55.38-3.27V1196.9a7.45,7.45,0,0,0,7.43,7.43h250.44a7.45,7.45,0,0,0,7.43-7.43V331.36A7.46,7.46,0,0,0,1182.28,323.92Z"/><rect class="cls-25" x="1787.87" y="323.92" width="265.31" height="880.42" rx="7.44"/><polygon class="cls-1" points="924.41 397.58 764.38 1204.42 924.41 1204.42 924.41 397.58"/><path class="cls-8" d="M764.53,884.65l8.35-47.55a10.4,10.4,0,0,1,12-8.41L803.56,832l1-5.8a17.75,17.75,0,0,1,20.53-14.41l1.47.26h0l14,2.45A17.8,17.8,0,0,1,855,835l-1,5.8h0l18.68,3.28a10.38,10.38,0,0,1,8.4,12l-8.35,47.57a10.39,10.39,0,0,1-12,8.4l-87.76-15.42A10.38,10.38,0,0,1,764.53,884.65Zm82.49-45,1-5.8a10.74,10.74,0,0,0-6.36-11.71,11.12,11.12,0,0,0-2.33-.68l-12.64-2.22-2.82-.5a10.73,10.73,0,0,0-12.4,8.69l-1,5.81L847,839.61Z"/><g id="man"><path class="cls-3" d="M811,1151.56s-12.35,11.45-9.94,19.59,13.56,13.55,15.07,23.5,7.53,15.37,13,15.37H855s4-7-5.65-9.11-13.28-13.8-12.67-24.64-.91-25.31-.91-25.31l-20.49-4.82Z"/><path class="cls-3" d="M964.19,1210h70.49c-.9-2.55-3.44-6.37-10.66-7.54-10.8-1.76-29.51-8-33.69-21.85-.13-.44-.25-.9-.36-1.36-3.31-14.76-27.42,4.52-27.42,4.52s-.07.59-.17,1.6C961.85,1190.47,960.57,1206.27,964.19,1210Z"/><path class="cls-8" d="M1021.16,815.71s-3.66,45.67-8,100.58c-5.85,74.58-12.88,166.2-13.57,183.55-1.21,30.14-6,78.35-6,78.35s-11.45,11.45-34.35,6.62c0,0-20.41-68.81-26.24-141.63-.1-1.19-.19-2.39-.28-3.59-5.42-74.13-13.85-230.21-13.85-230.21Z"/><path class="cls-3" d="M1021.16,815.71s-3.66,45.67-8,100.58L933,1043.18c-.1-1.19-.19-2.39-.28-3.59-5.42-74.13-13.85-230.21-13.85-230.21Z"/><path class="cls-8" d="M1004.44,821.13s-66,165.42-109.38,243.16-57,99.43-57,99.43-24.86-9.93-27.12-16.72c0,0,16.6-150.07,45.65-186.66C873,939.67,892.3,877.63,893.2,855.93s5.89-64.66,5.89-64.66Z"/><path class="cls-26" d="M1071.17,775.46l3.77,7.52s19.18,2.68,13.9,22.67c0,0-2.84,8.23-8.13,5.63s-2.68-2.38-10.26-5.89-12-10.23-10.28-16.4l-1.21-6.55Z"/><path class="cls-26" d="M988,580c-25.79,8.13-70.4-13.82-70.4-13.82s23.77-17.84,22.53-55L959.8,527l13.82,11.14a173.84,173.84,0,0,1-2,20.76c-.31,2.13-.66,4.41-1.07,6.82A61.76,61.76,0,0,1,988,580Z"/><path class="cls-27" d="M1066.7,785.91a72.57,72.57,0,0,0,9.92-13.44s-48.39-60.13-52.32-66.37S991,599.86,991,599.86l-74.32-15s62,128,72.31,143.59c17,25.78,67.79,64.16,67.79,64.16A30.43,30.43,0,0,0,1066.7,785.91Z"/><path class="cls-6" d="M1024,819.51a4.09,4.09,0,0,1-2.71,1c-9.68-.13-37.92,5.25-61.81,2.8-20.14-1.94-38-7.9-57.12-16.49-2.54-1.13-8.39-4.26-8.26-7.1.09-3.11.39-7.62.78-13.31,1.36-19.76,3.72-53.75,1.42-93-.42-7.3-.63-14.55-.66-21.68-.2-53.14,10.34-99.89,31.52-115.71,1.81-1.3,12.91,4.13,23.11,9.16A42.2,42.2,0,0,0,978,568.55l8.91,7.87c10.85,10.07,22.73,23.76,27.89,44.55,4.4,17.69,7,49.59,8.4,82.64.64,15,1.16,30.09,1.29,44.43v.52c.13,1.42.13,3,.13,4.39C1025.17,789.81,1024.65,819,1024,819.51Z"/><path class="cls-27" d="M894.88,786.44c1.36-19.76,3.72-53.75,1.42-93-.42-7.3-.63-14.55-.66-21.68,8.82-21.4,16-36.91,16-36.91h22.23S950.21,746.27,894.88,786.44Z"/><path class="cls-26" d="M851.63,793.36l-4.23,7.28s8.27,17.51-11.34,24.05c0,0-8.44,2.13-9.17-3.72s.53-3.55-.7-11.81,2-15.62,8.1-17.58l4.81-4.6Z"/><path class="cls-6" d="M840.44,795.35a72,72,0,0,0,16.65.92s23.77-73.43,26.83-80.13S954.52,630,954.52,630l-28.13-70.41s-73.06,122-80.48,139.18c-12.26,28.33-16.51,91.86-16.51,91.86A30.36,30.36,0,0,0,840.44,795.35Z"/><path class="cls-28" d="M973.62,538.2a173.84,173.84,0,0,1-2,20.76c-20.09-4.71-31.56-29.84-31.56-29.84l19.7-2.06Z"/><path class="cls-26" d="M981.5,537.59s-42.59,7.07-46.59-19.52-12.19-43.59,14.84-49.23,33.85,3.71,37.34,12.26S992.48,535.06,981.5,537.59Z"/><path class="cls-3" d="M987.09,481.1s-18,4.86-27.61,5.1S952.38,501,950,501.7s-7.42-7.14-11.84-2c-2,2.38,1.19,11.11,5.26,13.74s-5.72,20.06-5.72,20.06-20.8-18.39-16.26-51.12,36.31-31.53,49.21-27.94,30.08.6,28.66,11.22C998.35,472.82,995.46,479.42,987.09,481.1Z"/></g><rect class="cls-8" x="1642.46" y="231.76" width="17.5" height="26.5"/><rect class="cls-8" x="1612.46" y="231.76" width="17.5" height="26.5"/><rect class="cls-8" x="1582.46" y="231.76" width="17.5" height="26.5"/><rect class="cls-8" x="1552.46" y="231.76" width="17.5" height="26.5"/><rect class="cls-8" x="1522.46" y="231.76" width="17.5" height="26.5"/><rect class="cls-8" x="1492.46" y="231.76" width="17.5" height="26.5"/><rect class="cls-8" x="1462.46" y="231.76" width="17.5" height="26.5"/><rect class="cls-8" x="1432.46" y="231.76" width="17.5" height="26.5"/><rect class="cls-8" x="1402.46" y="231.76" width="17.5" height="26.5"/><rect class="cls-29" x="1372.46" y="231.76" width="17.5" height="26.5"/><rect class="cls-30" x="2082.37" y="769.4" width="86.67" height="140.42" rx="10.54"/><polygon class="cls-31" points="2125.71 799.83 2107.81 830.83 2143.6 830.83 2125.71 799.83"/><polygon class="cls-8" points="2125.71 880.83 2107.81 849.83 2143.6 849.83 2125.71 880.83"/><path class="cls-16" d="M523,1052.52s-23.94-27.93-1.48-45.67c0,0,16.41-9.94,29.79-9.13,0,0-19,31.79-12.82,35s18.57-37,18.57-37,37.35-3.62,49.36,2.16c0,0-31.93,26.12-25.2,27.68s41.21-24.09,41.21-24.09,34.75,5.92,32.9,27.12-13.83,27.75-19.09,27.19-36.06-12.32-36.73-8,17.86,18.41,30.84,19.07c0,0-24.5,27-40.79,19.22s-17.67-20.16-27.83-24.8-18.81-4.62-14.62.11,22.56,9.32,28.37,19.59,11,17.2-5.84,14.66-44.24-14.86-45.44-29Z"/><path class="cls-16" d="M638.28,1029.16s-94.4-3.64-115.25,23.36c0,0-4.61,13.81-18.8,26.39l-2.21,6s16.36-17.25,22.21-18.29C524.23,1066.64,515.09,1033.19,638.28,1029.16Z"/><path class="cls-16" d="M504.23,1078.91s-20.26,15-21.67,41.76l3.68.33s6.47-27.69,18.17-38.52S504.23,1078.91,504.23,1078.91Z"/><path class="cls-15" d="M439.32,1017.39s38.08-21.33,20.31-50.27c0,0-14.22-17.78-29.46-22.35,0,0,8.13,43.17,0,44.18s-5.58-48.75-5.58-48.75-40.12-19.3-55.86-17.77c0,0,24.88,42.15,16.76,41.13s-36.06-43.67-36.06-43.67-41.14-7.62-47.74,16.76,4.06,36.56,10.16,38.08,45.19,1,44.18,6.1-27.42,13.2-42.15,8.63c0,0,16.25,40.12,37.58,38.09s27.93-15.28,41.13-16.28,22.86,2.54,16.25,6.09-28.94,1.17-39.61,10.23-19.29,14.66.51,18.72,55.35,1.52,62.47-13.71Z"/><path class="cls-16" d="M320.48,944.27s106.65,34.53,118.84,73.12c0,0-.51,17.27,10.15,37.08v7.61s-11.17-25.9-17.26-29.45C432.21,1032.63,456.09,999.11,320.48,944.27Z"/><path class="cls-16" d="M449.47,1054.47s16.45,25,7.07,55.37l-4.23-1.13s4.11-33.49-4.5-50.33S449.47,1054.47,449.47,1054.47Z"/><path class="cls-16" d="M499.91,988s-50.21-28.12-26.78-66.28c0,0,18.75-23.43,38.83-29.45,0,0-10.71,56.9,0,58.24s7.36-64.26,7.36-64.26,52.89-25.44,73.64-23.44c0,0-32.8,55.57-22.09,54.23s47.53-57.57,47.53-57.57,54.22-10,62.92,22.09-5.35,48.2-13.39,50.21-59.57,1.34-58.24,8,36.15,17.4,55.57,11.38c0,0-21.43,52.88-49.54,50.21s-36.82-20.09-54.22-21.43-30.13,3.35-21.43,8,38.16,1.53,52.22,13.48,25.44,19.32-.67,24.67-73,2-82.34-18.07Z"/><path class="cls-16" d="M656.55,891.58S516,937.1,499.91,988c0,0,.67,22.76-13.39,48.87v10s14.73-34.14,22.76-38.83C509.28,1008.06,477.82,963.88,656.55,891.58Z"/><path class="cls-16" d="M486.52,1036.85s-21.68,32.92-9.32,73l5.58-1.5s-5.42-44.14,5.93-66.34S486.52,1036.85,486.52,1036.85Z"/><path class="cls-32" d="M596.57,1098.39a98.35,98.35,0,0,1-196.7,0Z"/><path class="cls-9" d="M557.78,1098.39a98.38,98.38,0,0,1-79,96.44,98.38,98.38,0,0,1-79-96.44Z"/><path class="cls-32" d="M597.92,1201.75H398.51a12.12,12.12,0,0,1,12.11-12.13H585.78a12.14,12.14,0,0,1,12.14,12.12Z"/><path class="cls-33" d="M473.39,1189.62h13.33c-36.07-14.57-50.43-49.92-50.43-91.22H411.86A98.37,98.37,0,0,0,473.39,1189.62Z"/><path class="cls-9" d="M504.53,1201.75h-106a12.12,12.12,0,0,1,12.11-12.13h85.63C502.94,1189.62,504.53,1195.05,504.53,1201.75Z"/><path class="cls-34" d="M597.29,1101.41H398.15a1.5,1.5,0,0,1-1.51-1.49h0a1.5,1.5,0,0,1,1.49-1.51H597.29a1.51,1.51,0,0,1,1.51,1.49v0h0a1.5,1.5,0,0,1-1.5,1.5Z"/><path class="cls-22" d="M793.75,782.66h-199V502.06h199ZM600.44,777H788.09V507.74H600.44Z"/><rect class="cls-35" x="606.34" y="512.09" width="174.01" height="259.28"/><path class="cls-22" d="M502.66,782.66h-199V502.06h199ZM309.35,777H497V507.74H309.35Z"/><rect class="cls-35" x="315.25" y="512.09" width="174.01" height="259.28"/><path class="cls-2" d="M1503.21,578.71h14.25S1508.09,585.74,1503.21,578.71Z"/><path class="cls-2" d="M1401.15,598.35h11.31S1410.84,602.52,1401.15,598.35Z"/><path class="cls-36" d="M4,1201.75H2764.18a4,4,0,0,1,4,4v3.81a4,4,0,0,1-4,4H4a4,4,0,0,1-4-4v-3.81A4,4,0,0,1,4,1201.75Z"/></g></g></svg>