<svg id="Layer_1" data-name="Layer 1" xmlns="http://www.w3.org/2000/svg" viewBox="0 0 176.2 25.44"><defs><style>.cls-1{fill:#150035;}.cls-2{fill:#fff;}</style></defs><title>dots</title><g id="pattern"><path class="cls-1" d="M390.65,532.16a2.28,2.28,0,1,1,2.4-2.28A2.35,2.35,0,0,1,390.65,532.16Zm0-3.7a1.42,1.42,0,1,0,1.5,1.42A1.46,1.46,0,0,0,390.65,528.46Z" transform="translate(-388.25 -506.72)"/><path class="cls-1" d="M413,532.16a2.28,2.28,0,1,1,2.4-2.28A2.35,2.35,0,0,1,413,532.16Zm0-3.7a1.42,1.42,0,1,0,1.5,1.42A1.47,1.47,0,0,0,413,528.46Z" transform="translate(-388.25 -506.72)"/><path class="cls-1" d="M407.08,532.16h-2.94a.9.9,0,0,1-.93-.88v-2.8a.9.9,0,0,1,.93-.88h2.94a.91.91,0,0,1,.93.88v2.8A.91.91,0,0,1,407.08,532.16Zm-2.94-3.7,0,2.82,3,0s0,0,0,0v-2.8Z" transform="translate(-388.25 -506.72)"/><path class="cls-1" d="M414.5,532.16h-2.94a.91.91,0,0,1-.93-.88v-2.8a.91.91,0,0,1,.93-.88h2.94a.9.9,0,0,1,.93.88v2.8A.9.9,0,0,1,414.5,532.16Zm-2.94-3.7,0,2.82,3,0s0,0,0,0v-2.8Z" transform="translate(-388.25 -506.72)"/><path class="cls-2" d="M435.68,525.08a2.29,2.29,0,1,1,2.41-2.28A2.35,2.35,0,0,1,435.68,525.08Zm0-3.71a1.43,1.43,0,1,0,1.5,1.43A1.46,1.46,0,0,0,435.68,521.37Z" transform="translate(-388.25 -506.72)"/><path class="cls-2" d="M437.16,525.08h-3a.91.91,0,0,1-.93-.88v-2.8a.91.91,0,0,1,.93-.89h3a.91.91,0,0,1,.93.89v2.8A.91.91,0,0,1,437.16,525.08Zm-3-3.71,0,2.83,3,0,0,0v-2.8Z" transform="translate(-388.25 -506.72)"/><path class="cls-1" d="M392.12,525.08h-2.94a.91.91,0,0,1-.93-.88v-2.8a.91.91,0,0,1,.93-.89h2.94a.91.91,0,0,1,.93.89v2.8A.91.91,0,0,1,392.12,525.08Zm-2.94-3.71,0,2.83,3,0s0,0,0,0v-2.8Z" transform="translate(-388.25 -506.72)"/><path class="cls-1" d="M413,525.08a2.29,2.29,0,1,1,2.4-2.28A2.35,2.35,0,0,1,413,525.08Zm0-3.71a1.43,1.43,0,1,0,1.5,1.43A1.47,1.47,0,0,0,413,521.37Z" transform="translate(-388.25 -506.72)"/><rect class="cls-1" x="16.91" y="14.22" width="0.91" height="3.71"/><rect class="cls-1" x="15.41" y="15.64" width="3.9" height="0.86"/><rect class="cls-1" x="9.37" y="21.31" width="0.91" height="3.71"/><rect class="cls-1" x="7.88" y="22.73" width="3.9" height="0.86"/><path class="cls-1" d="M422.19,532.16h-2.93a.92.92,0,0,1-.94-.89v-2.78a.92.92,0,0,1,.94-.89h2.93a.92.92,0,0,1,.94.89v2.78A.92.92,0,0,1,422.19,532.16Zm-2.93-3.7,0,2.81,3,0a0,0,0,0,0,0,0v-2.78Z" transform="translate(-388.25 -506.72)"/><path class="cls-2" d="M437.16,532.16h-3a.91.91,0,0,1-.93-.88v-2.8a.91.91,0,0,1,.93-.88h3a.91.91,0,0,1,.93.88v2.8A.91.91,0,0,1,437.16,532.16Zm-3-3.7,0,2.82,3,0,0,0v-2.8Z" transform="translate(-388.25 -506.72)"/><path class="cls-2" d="M443.11,525.08a2.29,2.29,0,1,1,2.4-2.28A2.35,2.35,0,0,1,443.11,525.08Zm0-3.71a1.43,1.43,0,1,0,1.49,1.43A1.47,1.47,0,0,0,443.11,521.37Z" transform="translate(-388.25 -506.72)"/><rect class="cls-1" x="32.03" y="14.22" width="0.91" height="3.71"/><rect class="cls-1" x="30.53" y="15.64" width="3.9" height="0.86"/><rect class="cls-2" x="39.45" y="21.31" width="0.91" height="3.71"/><rect class="cls-2" x="37.95" y="22.73" width="3.9" height="0.86"/><rect class="cls-2" x="54.41" y="21.31" width="0.91" height="3.71"/><rect class="cls-2" x="52.91" y="22.73" width="3.9" height="0.86"/><path class="cls-2" d="M450.34,532.16a2.28,2.28,0,1,1,2.41-2.28A2.35,2.35,0,0,1,450.34,532.16Zm0-3.7a1.42,1.42,0,1,0,1.5,1.42A1.46,1.46,0,0,0,450.34,528.46Z" transform="translate(-388.25 -506.72)"/><path class="cls-2" d="M457.77,525.08a2.29,2.29,0,1,1,2.4-2.28A2.35,2.35,0,0,1,457.77,525.08Zm0-3.71a1.43,1.43,0,1,0,1.49,1.43A1.47,1.47,0,0,0,457.77,521.37Z" transform="translate(-388.25 -506.72)"/><path class="cls-2" d="M472.72,532.16a2.28,2.28,0,1,1,2.41-2.28A2.35,2.35,0,0,1,472.72,532.16Zm0-3.7a1.42,1.42,0,1,0,1.5,1.42A1.46,1.46,0,0,0,472.72,528.46Z" transform="translate(-388.25 -506.72)"/><path class="cls-2" d="M466.78,532.16h-2.95a.91.91,0,0,1-.93-.88v-2.8a.91.91,0,0,1,.93-.88h2.95a.9.9,0,0,1,.92.88v2.8A.9.9,0,0,1,466.78,532.16Zm-2.95-3.7,0,2.82,3,0,0,0v-2.8Z" transform="translate(-388.25 -506.72)"/><path class="cls-2" d="M474.2,532.16h-2.95a.91.91,0,0,1-.93-.88v-2.8a.91.91,0,0,1,.93-.88h2.95a.91.91,0,0,1,.93.88v2.8A.91.91,0,0,1,474.2,532.16Zm-2.95-3.7,0,2.82,3,0,0,0v-2.8Z" transform="translate(-388.25 -506.72)"/><path class="cls-2" d="M495.38,525.08a2.29,2.29,0,1,1,2.4-2.28A2.35,2.35,0,0,1,495.38,525.08Zm0-3.71a1.43,1.43,0,1,0,1.49,1.43A1.47,1.47,0,0,0,495.38,521.37Z" transform="translate(-388.25 -506.72)"/><path class="cls-2" d="M496.85,525.08h-3a.91.91,0,0,1-.93-.88v-2.8a.91.91,0,0,1,.93-.89h3a.91.91,0,0,1,.93.89v2.8A.91.91,0,0,1,496.85,525.08Zm-3-3.71,0,2.83,3,0,0,0v-2.8Z" transform="translate(-388.25 -506.72)"/><path class="cls-2" d="M451.82,525.08h-2.95a.91.91,0,0,1-.93-.88v-2.8a.91.91,0,0,1,.93-.89h2.95a.91.91,0,0,1,.93.89v2.8A.91.91,0,0,1,451.82,525.08Zm-2.95-3.71,0,2.83,3,0,0,0v-2.8Z" transform="translate(-388.25 -506.72)"/><path class="cls-2" d="M472.72,525.08a2.29,2.29,0,1,1,2.41-2.28A2.35,2.35,0,0,1,472.72,525.08Zm0-3.71a1.43,1.43,0,1,0,1.5,1.43A1.46,1.46,0,0,0,472.72,521.37Z" transform="translate(-388.25 -506.72)"/><rect class="cls-2" x="76.6" y="14.22" width="0.91" height="3.71"/><rect class="cls-2" x="75.1" y="15.64" width="3.9" height="0.86"/><rect class="cls-2" x="69.07" y="21.31" width="0.91" height="3.71"/><rect class="cls-2" x="67.57" y="22.73" width="3.9" height="0.86"/><path class="cls-2" d="M487.84,525.08a2.29,2.29,0,1,1,2.4-2.28A2.35,2.35,0,0,1,487.84,525.08Zm0-3.71a1.43,1.43,0,1,0,1.5,1.43A1.47,1.47,0,0,0,487.84,521.37Z" transform="translate(-388.25 -506.72)"/><path class="cls-2" d="M496.85,532.16h-3a.91.91,0,0,1-.93-.88v-2.8a.91.91,0,0,1,.93-.88h3a.91.91,0,0,1,.93.88v2.8A.91.91,0,0,1,496.85,532.16Zm-3-3.7,0,2.82,3,0,0,0v-2.8Z" transform="translate(-388.25 -506.72)"/><path class="cls-2" d="M502.8,525.08a2.29,2.29,0,1,1,2.4-2.28A2.35,2.35,0,0,1,502.8,525.08Zm0-3.71a1.43,1.43,0,1,0,1.5,1.43A1.47,1.47,0,0,0,502.8,521.37Z" transform="translate(-388.25 -506.72)"/><rect class="cls-2" x="91.72" y="14.22" width="0.91" height="3.71"/><rect class="cls-2" x="90.22" y="15.64" width="3.9" height="0.86"/><rect class="cls-2" x="114.1" y="21.31" width="0.91" height="3.71"/><rect class="cls-2" x="112.6" y="22.73" width="3.9" height="0.86"/><path class="cls-2" d="M510,532.16a2.28,2.28,0,1,1,2.4-2.28A2.35,2.35,0,0,1,510,532.16Zm0-3.7a1.42,1.42,0,1,0,1.49,1.42A1.46,1.46,0,0,0,510,528.46Z" transform="translate(-388.25 -506.72)"/><path class="cls-2" d="M517.46,525.08a2.29,2.29,0,1,1,2.4-2.28A2.35,2.35,0,0,1,517.46,525.08Zm0-3.71a1.43,1.43,0,1,0,1.5,1.43A1.47,1.47,0,0,0,517.46,521.37Z" transform="translate(-388.25 -506.72)"/><path class="cls-2" d="M532.42,532.16a2.28,2.28,0,1,1,2.4-2.28A2.34,2.34,0,0,1,532.42,532.16Zm0-3.7a1.42,1.42,0,1,0,1.5,1.42A1.46,1.46,0,0,0,532.42,528.46Z" transform="translate(-388.25 -506.72)"/><path class="cls-2" d="M526.47,532.16h-3a.91.91,0,0,1-.93-.88v-2.8a.91.91,0,0,1,.93-.88h3a.91.91,0,0,1,.93.88v2.8A.91.91,0,0,1,526.47,532.16Zm-3-3.7,0,2.82,3,0,0,0v-2.8Z" transform="translate(-388.25 -506.72)"/><path class="cls-2" d="M533.89,532.16h-2.95a.9.9,0,0,1-.92-.88v-2.8a.9.9,0,0,1,.92-.88h2.95a.91.91,0,0,1,.93.88v2.8A.91.91,0,0,1,533.89,532.16Zm-2.95-3.7,0,2.82,3,0,0,0v-2.8Z" transform="translate(-388.25 -506.72)"/><path class="cls-2" d="M511.51,525.08h-2.95a.91.91,0,0,1-.93-.88v-2.8a.91.91,0,0,1,.93-.89h2.95a.91.91,0,0,1,.93.89v2.8A.91.91,0,0,1,511.51,525.08Zm-2.95-3.71,0,2.83,3,0,0,0v-2.8Z" transform="translate(-388.25 -506.72)"/><rect class="cls-2" x="128.76" y="21.31" width="0.91" height="3.71"/><rect class="cls-2" x="127.26" y="22.73" width="3.9" height="0.86"/><path class="cls-2" d="M541.57,532.16h-2.92a.92.92,0,0,1-.94-.89v-2.78a.92.92,0,0,1,.94-.89h2.92a.92.92,0,0,1,.94.89v2.78A.92.92,0,0,1,541.57,532.16Zm-2.92-3.7,0,2.81,3,0s0,0,0,0v-2.78Z" transform="translate(-388.25 -506.72)"/><path class="cls-2" d="M547.53,525.08a2.29,2.29,0,1,1,2.41-2.28A2.35,2.35,0,0,1,547.53,525.08Zm0-3.71a1.43,1.43,0,1,0,1.5,1.43A1.46,1.46,0,0,0,547.53,521.37Z" transform="translate(-388.25 -506.72)"/><path class="cls-2" d="M556.54,532.16H553.6a.9.9,0,0,1-.93-.88v-2.8a.9.9,0,0,1,.93-.88h2.94a.9.9,0,0,1,.93.88v2.8A.9.9,0,0,1,556.54,532.16Zm-2.94-3.7,0,2.82,3,0s0,0,0,0v-2.8Z" transform="translate(-388.25 -506.72)"/><rect class="cls-2" x="151.41" y="14.22" width="0.91" height="3.71"/><rect class="cls-2" x="149.91" y="15.64" width="3.9" height="0.86"/><rect class="cls-2" x="158.83" y="21.31" width="0.91" height="3.71"/><rect class="cls-2" x="157.34" y="22.73" width="3.9" height="0.86"/><rect class="cls-2" x="173.79" y="21.31" width="0.91" height="3.71"/><rect class="cls-2" x="172.3" y="22.73" width="3.9" height="0.86"/><path class="cls-1" d="M390.65,518.37a2.28,2.28,0,1,1,2.4-2.28A2.35,2.35,0,0,1,390.65,518.37Zm0-3.7a1.42,1.42,0,1,0,1.5,1.42A1.46,1.46,0,0,0,390.65,514.67Z" transform="translate(-388.25 -506.72)"/><path class="cls-1" d="M398.07,511.29a2.29,2.29,0,1,1,2.41-2.29A2.35,2.35,0,0,1,398.07,511.29Zm0-3.71a1.43,1.43,0,1,0,1.5,1.42A1.46,1.46,0,0,0,398.07,507.58Z" transform="translate(-388.25 -506.72)"/><path class="cls-1" d="M413,518.37a2.28,2.28,0,1,1,2.4-2.28A2.35,2.35,0,0,1,413,518.37Zm0-3.7a1.42,1.42,0,1,0,1.5,1.42A1.46,1.46,0,0,0,413,514.67Z" transform="translate(-388.25 -506.72)"/><path class="cls-1" d="M407.08,518.37h-2.94a.9.9,0,0,1-.93-.88v-2.8a.9.9,0,0,1,.93-.88h2.94a.91.91,0,0,1,.93.88v2.8A.91.91,0,0,1,407.08,518.37Zm-2.94-3.7,0,2.82,3,0,0,0v-2.8Z" transform="translate(-388.25 -506.72)"/><path class="cls-1" d="M392.12,511.29h-2.94a.91.91,0,0,1-.93-.89v-2.8a.91.91,0,0,1,.93-.88h2.94a.91.91,0,0,1,.93.88v2.8A.91.91,0,0,1,392.12,511.29Zm-2.94-3.71,0,2.82,3,0a0,0,0,0,0,0,0v-2.8Z" transform="translate(-388.25 -506.72)"/><path class="cls-1" d="M414.5,518.37h-2.94a.91.91,0,0,1-.93-.88v-2.8a.91.91,0,0,1,.93-.88h2.94a.9.9,0,0,1,.93.88v2.8A.9.9,0,0,1,414.5,518.37Zm-2.94-3.7,0,2.82,3,0s0,0,0,0v-2.8Z" transform="translate(-388.25 -506.72)"/><path class="cls-2" d="M435.68,511.29a2.29,2.29,0,1,1,2.41-2.29A2.35,2.35,0,0,1,435.68,511.29Zm0-3.71a1.43,1.43,0,1,0,1.5,1.42A1.46,1.46,0,0,0,435.68,507.58Z" transform="translate(-388.25 -506.72)"/><path class="cls-2" d="M437.16,511.29h-3a.91.91,0,0,1-.93-.89v-2.8a.91.91,0,0,1,.93-.88h3a.91.91,0,0,1,.93.88v2.8A.91.91,0,0,1,437.16,511.29Zm-3-3.71,0,2.82,3,0s0,0,0,0v-2.8Z" transform="translate(-388.25 -506.72)"/><path class="cls-1" d="M413,511.29a2.29,2.29,0,1,1,2.4-2.29A2.35,2.35,0,0,1,413,511.29Zm0-3.71a1.43,1.43,0,1,0,1.5,1.42A1.47,1.47,0,0,0,413,507.58Z" transform="translate(-388.25 -506.72)"/><rect class="cls-1" x="9.37" y="7.51" width="0.91" height="3.71"/><rect class="cls-1" x="7.88" y="8.94" width="3.9" height="0.86"/><path class="cls-1" d="M422.19,518.37h-2.93a.92.92,0,0,1-.94-.89V514.7a.92.92,0,0,1,.94-.89h2.93a.92.92,0,0,1,.94.89v2.78A.92.92,0,0,1,422.19,518.37Zm-2.93-3.7,0,2.81,3,0a0,0,0,0,0,0,0V514.7Z" transform="translate(-388.25 -506.72)"/><path class="cls-2" d="M428.15,511.29a2.29,2.29,0,1,1,2.4-2.29A2.35,2.35,0,0,1,428.15,511.29Zm0-3.71a1.43,1.43,0,1,0,1.5,1.42A1.46,1.46,0,0,0,428.15,507.58Z" transform="translate(-388.25 -506.72)"/><path class="cls-2" d="M437.16,518.37h-3a.91.91,0,0,1-.93-.88v-2.8a.91.91,0,0,1,.93-.88h3a.91.91,0,0,1,.93.88v2.8A.91.91,0,0,1,437.16,518.37Zm-3-3.7,0,2.82,3,0,0,0v-2.8Z" transform="translate(-388.25 -506.72)"/><path class="cls-2" d="M443.11,511.29a2.29,2.29,0,1,1,2.4-2.29A2.36,2.36,0,0,1,443.11,511.29Zm0-3.71A1.43,1.43,0,1,0,444.6,509,1.46,1.46,0,0,0,443.11,507.58Z" transform="translate(-388.25 -506.72)"/><rect class="cls-1" x="32.03" y="0.43" width="0.91" height="3.71"/><rect class="cls-1" x="30.53" y="1.85" width="3.9" height="0.86"/><rect class="cls-2" x="39.45" y="7.51" width="0.91" height="3.71"/><rect class="cls-2" x="37.95" y="8.94" width="3.9" height="0.86"/><rect class="cls-2" x="54.41" y="7.51" width="0.91" height="3.71"/><rect class="cls-2" x="52.91" y="8.94" width="3.9" height="0.86"/><path class="cls-2" d="M450.34,518.37a2.28,2.28,0,1,1,2.41-2.28A2.35,2.35,0,0,1,450.34,518.37Zm0-3.7a1.42,1.42,0,1,0,1.5,1.42A1.45,1.45,0,0,0,450.34,514.67Z" transform="translate(-388.25 -506.72)"/><path class="cls-2" d="M457.77,511.29a2.29,2.29,0,1,1,2.4-2.29A2.36,2.36,0,0,1,457.77,511.29Zm0-3.71a1.43,1.43,0,1,0,1.49,1.42A1.46,1.46,0,0,0,457.77,507.58Z" transform="translate(-388.25 -506.72)"/><path class="cls-2" d="M472.72,518.37a2.28,2.28,0,1,1,2.41-2.28A2.35,2.35,0,0,1,472.72,518.37Zm0-3.7a1.42,1.42,0,1,0,1.5,1.42A1.45,1.45,0,0,0,472.72,514.67Z" transform="translate(-388.25 -506.72)"/><path class="cls-2" d="M466.78,518.37h-2.95a.91.91,0,0,1-.93-.88v-2.8a.91.91,0,0,1,.93-.88h2.95a.9.9,0,0,1,.92.88v2.8A.9.9,0,0,1,466.78,518.37Zm-2.95-3.7,0,2.82,3,0,0,0v-2.8Z" transform="translate(-388.25 -506.72)"/><path class="cls-2" d="M474.2,518.37h-2.95a.91.91,0,0,1-.93-.88v-2.8a.91.91,0,0,1,.93-.88h2.95a.91.91,0,0,1,.93.88v2.8A.91.91,0,0,1,474.2,518.37Zm-2.95-3.7,0,2.82,3,0,0,0v-2.8Z" transform="translate(-388.25 -506.72)"/><path class="cls-2" d="M495.38,511.29a2.29,2.29,0,1,1,2.4-2.29A2.36,2.36,0,0,1,495.38,511.29Zm0-3.71a1.43,1.43,0,1,0,1.49,1.42A1.46,1.46,0,0,0,495.38,507.58Z" transform="translate(-388.25 -506.72)"/><path class="cls-2" d="M496.85,511.29h-3a.91.91,0,0,1-.93-.89v-2.8a.91.91,0,0,1,.93-.88h3a.91.91,0,0,1,.93.88v2.8A.91.91,0,0,1,496.85,511.29Zm-3-3.71,0,2.82,3,0s0,0,0,0v-2.8Z" transform="translate(-388.25 -506.72)"/><path class="cls-2" d="M451.82,511.29h-2.95a.91.91,0,0,1-.93-.89v-2.8a.91.91,0,0,1,.93-.88h2.95a.91.91,0,0,1,.93.88v2.8A.91.91,0,0,1,451.82,511.29Zm-2.95-3.71,0,2.82,3,0s0,0,0,0v-2.8Z" transform="translate(-388.25 -506.72)"/><path class="cls-2" d="M472.72,511.29a2.29,2.29,0,1,1,2.41-2.29A2.35,2.35,0,0,1,472.72,511.29Zm0-3.71a1.43,1.43,0,1,0,1.5,1.42A1.46,1.46,0,0,0,472.72,507.58Z" transform="translate(-388.25 -506.72)"/><rect class="cls-2" x="76.6" y="0.43" width="0.91" height="3.71"/><rect class="cls-2" x="75.1" y="1.85" width="3.9" height="0.86"/><path class="cls-2" d="M481.88,518.37H479a.92.92,0,0,1-.94-.89V514.7a.92.92,0,0,1,.94-.89h2.92a.92.92,0,0,1,.94.89v2.78A.92.92,0,0,1,481.88,518.37Zm-2.92-3.7,0,2.81,3,0s0,0,0,0V514.7Z" transform="translate(-388.25 -506.72)"/><path class="cls-2" d="M487.84,511.29a2.29,2.29,0,1,1,2.4-2.29A2.35,2.35,0,0,1,487.84,511.29Zm0-3.71a1.43,1.43,0,1,0,1.5,1.42A1.47,1.47,0,0,0,487.84,507.58Z" transform="translate(-388.25 -506.72)"/><path class="cls-2" d="M496.85,518.37h-3a.91.91,0,0,1-.93-.88v-2.8a.91.91,0,0,1,.93-.88h3a.91.91,0,0,1,.93.88v2.8A.91.91,0,0,1,496.85,518.37Zm-3-3.7,0,2.82,3,0,0,0v-2.8Z" transform="translate(-388.25 -506.72)"/><path class="cls-2" d="M502.8,511.29a2.29,2.29,0,1,1,2.4-2.29A2.35,2.35,0,0,1,502.8,511.29Zm0-3.71a1.43,1.43,0,1,0,1.5,1.42A1.46,1.46,0,0,0,502.8,507.58Z" transform="translate(-388.25 -506.72)"/><rect class="cls-2" x="91.72" y="0.43" width="0.91" height="3.71"/><rect class="cls-2" x="90.22" y="1.85" width="3.9" height="0.86"/><rect class="cls-2" x="99.14" y="7.51" width="0.91" height="3.71"/><rect class="cls-2" x="97.64" y="8.94" width="3.9" height="0.86"/><rect class="cls-2" x="114.1" y="7.51" width="0.91" height="3.71"/><rect class="cls-2" x="112.6" y="8.94" width="3.9" height="0.86"/><path class="cls-2" d="M510,518.37a2.28,2.28,0,1,1,2.4-2.28A2.35,2.35,0,0,1,510,518.37Zm0-3.7a1.42,1.42,0,1,0,1.49,1.42A1.46,1.46,0,0,0,510,514.67Z" transform="translate(-388.25 -506.72)"/><path class="cls-2" d="M532.42,518.37a2.28,2.28,0,1,1,2.4-2.28A2.34,2.34,0,0,1,532.42,518.37Zm0-3.7a1.42,1.42,0,1,0,1.5,1.42A1.46,1.46,0,0,0,532.42,514.67Z" transform="translate(-388.25 -506.72)"/><path class="cls-2" d="M526.47,518.37h-3a.91.91,0,0,1-.93-.88v-2.8a.91.91,0,0,1,.93-.88h3a.91.91,0,0,1,.93.88v2.8A.91.91,0,0,1,526.47,518.37Zm-3-3.7,0,2.82,3,0,0,0v-2.8Z" transform="translate(-388.25 -506.72)"/><path class="cls-2" d="M533.89,518.37h-2.95a.9.9,0,0,1-.92-.88v-2.8a.9.9,0,0,1,.92-.88h2.95a.91.91,0,0,1,.93.88v2.8A.91.91,0,0,1,533.89,518.37Zm-2.95-3.7,0,2.82,3,0,0,0v-2.8Z" transform="translate(-388.25 -506.72)"/><path class="cls-2" d="M532.42,511.29a2.29,2.29,0,1,1,2.4-2.29A2.35,2.35,0,0,1,532.42,511.29Zm0-3.71a1.43,1.43,0,1,0,1.5,1.42A1.46,1.46,0,0,0,532.42,507.58Z" transform="translate(-388.25 -506.72)"/><rect class="cls-2" x="136.3" y="0.43" width="0.91" height="3.71"/><rect class="cls-2" x="134.8" y="1.85" width="3.9" height="0.86"/><rect class="cls-2" x="128.76" y="7.51" width="0.91" height="3.71"/><rect class="cls-2" x="127.26" y="8.94" width="3.9" height="0.86"/><path class="cls-2" d="M541.57,518.37h-2.92a.92.92,0,0,1-.94-.89V514.7a.92.92,0,0,1,.94-.89h2.92a.92.92,0,0,1,.94.89v2.78A.92.92,0,0,1,541.57,518.37Zm-2.92-3.7,0,2.81,3,0s0,0,0,0V514.7Z" transform="translate(-388.25 -506.72)"/><rect class="cls-2" x="158.83" y="7.51" width="0.91" height="3.71"/><rect class="cls-2" x="157.34" y="8.94" width="3.9" height="0.86"/></g></svg>