<svg id="Layer_1" data-name="Layer 1" xmlns="http://www.w3.org/2000/svg" viewBox="0 0 137.75 25.45"><defs><style>.cls-1{fill:#fff;}</style></defs><title>Wdots</title><g id="pattern"><rect class="cls-1" x="0.23" y="22.74" width="3.88" height="0.86"/><rect class="cls-1" x="16.6" y="21.32" width="0.91" height="3.71"/><rect class="cls-1" x="15.11" y="22.74" width="3.88" height="0.86"/><path class="cls-1" d="M24.24,25.44a2.28,2.28,0,1,1,2.4-2.28A2.35,2.35,0,0,1,24.24,25.44Zm0-3.7a1.42,1.42,0,1,0,1.49,1.42,1.45,1.45,0,0,0-1.49-1.42Z" transform="translate(0 0.01)"/><path class="cls-1" d="M31.63,18.36A2.29,2.29,0,1,1,34,16.08,2.34,2.34,0,0,1,31.63,18.36Zm0-3.71a1.43,1.43,0,1,0,1.48,1.43A1.47,1.47,0,0,0,31.63,14.65Z" transform="translate(0 0.01)"/><path class="cls-1" d="M46.5,25.44a2.28,2.28,0,1,1,2.4-2.28A2.35,2.35,0,0,1,46.5,25.44Zm0-3.7a1.42,1.42,0,0,0,.16,2.84A1.44,1.44,0,0,0,48,23.16a1.46,1.46,0,0,0-1.5-1.42Z" transform="translate(0 0.01)"/><path class="cls-1" d="M40.59,25.44H37.66a.9.9,0,0,1-.92-.88v-2.8a.9.9,0,0,1,.92-.88h2.93a.9.9,0,0,1,.92.88h0v2.8a.89.89,0,0,1-.91.88Zm-2.93-3.7v2.82h3v-2.8Z" transform="translate(0 0.01)"/><path class="cls-1" d="M48,25.44H45a.9.9,0,0,1-.92-.88v-2.8a.9.9,0,0,1,.92-.88H48a.91.91,0,0,1,.92.88v2.8A.91.91,0,0,1,48,25.44ZM45,21.74v2.82h3v-2.8Z" transform="translate(0 0.01)"/><path class="cls-1" d="M69,18.36a2.29,2.29,0,1,1,2.39-2.28A2.34,2.34,0,0,1,69,18.36Zm0-3.71a1.43,1.43,0,1,0,1.49,1.43A1.48,1.48,0,0,0,69,14.65Z" transform="translate(0 0.01)"/><path class="cls-1" d="M70.51,18.36h-3a.9.9,0,0,1-.92-.88v-2.8a.9.9,0,0,1,.92-.89h3a.9.9,0,0,1,.92.89h0v2.8A.91.91,0,0,1,70.51,18.36Zm-3-3.71v2.83h3v-2.8Z" transform="translate(0 0.01)"/><path class="cls-1" d="M25.71,18.36H22.78a.91.91,0,0,1-.93-.88v-2.8a.91.91,0,0,1,.93-.89h2.93a.91.91,0,0,1,.93.89h0v2.8A.91.91,0,0,1,25.71,18.36Zm-2.93-3.71v2.83h3v-2.8Z" transform="translate(0 0.01)"/><path class="cls-1" d="M46.5,18.36a2.29,2.29,0,1,1,2.4-2.28A2.35,2.35,0,0,1,46.5,18.36Zm0-3.71A1.43,1.43,0,1,0,48,16.08a1.46,1.46,0,0,0-1.49-1.43Z" transform="translate(0 0.01)"/><rect class="cls-1" x="38.67" y="14.23" width="0.91" height="3.71"/><rect class="cls-1" x="37.18" y="15.65" width="3.88" height="0.86"/><rect class="cls-1" x="31.18" y="21.32" width="0.91" height="3.71"/><rect class="cls-1" x="29.69" y="22.74" width="3.88" height="0.86"/><path class="cls-1" d="M61.54,18.36a2.29,2.29,0,1,1,2.39-2.28A2.34,2.34,0,0,1,61.54,18.36Zm0-3.71A1.43,1.43,0,1,0,63,16.08,1.47,1.47,0,0,0,61.54,14.65Z" transform="translate(0 0.01)"/><path class="cls-1" d="M70.51,25.44h-3a.9.9,0,0,1-.92-.88v-2.8a.9.9,0,0,1,.92-.88h3a.91.91,0,0,1,.92.88v2.8A.91.91,0,0,1,70.51,25.44Zm-3-3.7v2.82h3v-2.8Z" transform="translate(0 0.01)"/><path class="cls-1" d="M76.42,18.36a2.29,2.29,0,1,1,2.39-2.28A2.34,2.34,0,0,1,76.42,18.36Zm0-3.71a1.43,1.43,0,1,0,1.5,1.43A1.47,1.47,0,0,0,76.42,14.65Z" transform="translate(0 0.01)"/><rect class="cls-1" x="53.72" y="14.23" width="0.91" height="3.71"/><rect class="cls-1" x="52.22" y="15.65" width="3.88" height="0.86"/><rect class="cls-1" x="75.98" y="21.32" width="0.91" height="3.71"/><rect class="cls-1" x="74.48" y="22.74" width="3.88" height="0.86"/><path class="cls-1" d="M83.59,25.44a2.28,2.28,0,0,1,.24-4.55A2.26,2.26,0,0,1,86,23.16,2.33,2.33,0,0,1,83.59,25.44Zm0-3.7a1.42,1.42,0,1,0,1.48,1.42,1.46,1.46,0,0,0-1.48-1.42Z" transform="translate(0 0.01)"/><path class="cls-1" d="M91,18.36a2.29,2.29,0,1,1,2.38-2.28A2.33,2.33,0,0,1,91,18.36Zm0-3.71a1.43,1.43,0,1,0,1.49,1.43A1.46,1.46,0,0,0,91,14.65Z" transform="translate(0 0.01)"/><path class="cls-1" d="M105.89,25.44a2.28,2.28,0,1,1,2.39-2.28,2.35,2.35,0,0,1-2.39,2.28Zm0-3.7a1.42,1.42,0,0,0,.16,2.84,1.43,1.43,0,0,0,1.33-1.42,1.45,1.45,0,0,0-1.49-1.42Z" transform="translate(0 0.01)"/><path class="cls-1" d="M100,25.44H97a.91.91,0,0,1-.93-.88v-2.8a.91.91,0,0,1,.93-.88h3a.9.9,0,0,1,.92.88v2.8A.9.9,0,0,1,100,25.44Zm-3-3.7v2.82h3v-2.8Z" transform="translate(0 0.01)"/><path class="cls-1" d="M107.35,25.44h-2.93a.9.9,0,0,1-.92-.88h0v-2.8a.9.9,0,0,1,.92-.88h2.93a.91.91,0,0,1,.93.88v2.8A.91.91,0,0,1,107.35,25.44Zm-2.93-3.7v2.82h3v-2.8Z" transform="translate(0 0.01)"/><path class="cls-1" d="M85.09,18.36H82.15a.91.91,0,0,1-.92-.88v-2.8a.9.9,0,0,1,.92-.89h2.94a.9.9,0,0,1,.92.89h0v2.8A.9.9,0,0,1,85.09,18.36Zm-2.94-3.71v2.83h3v-2.8Z" transform="translate(0 0.01)"/><rect class="cls-1" x="90.56" y="21.32" width="0.91" height="3.71"/><rect class="cls-1" x="89.07" y="22.74" width="3.88" height="0.86"/><path class="cls-1" d="M115,25.44h-2.9a.92.92,0,0,1-.94-.89V21.77a.92.92,0,0,1,.94-.89H115a.91.91,0,0,1,.93.89v2.78A.91.91,0,0,1,115,25.44Zm-2.9-3.7v2.81h3V21.77Z" transform="translate(0 0.01)"/><path class="cls-1" d="M120.92,18.36a2.29,2.29,0,1,1,2.4-2.28A2.35,2.35,0,0,1,120.92,18.36Zm0-3.71a1.43,1.43,0,1,0,1.49,1.43,1.45,1.45,0,0,0-1.48-1.43Z" transform="translate(0 0.01)"/><path class="cls-1" d="M129.88,25.44H127a.9.9,0,0,1-.93-.87h0v-2.8a.9.9,0,0,1,.92-.88h2.93a.9.9,0,0,1,.93.87h0v2.8a.9.9,0,0,1-.92.88ZM127,21.74v2.82h3v-2.8Z" transform="translate(0 0.01)"/><rect class="cls-1" x="113.09" y="14.23" width="0.91" height="3.71"/><rect class="cls-1" x="111.6" y="15.65" width="3.88" height="0.86"/><rect class="cls-1" x="120.47" y="21.32" width="0.91" height="3.71"/><rect class="cls-1" x="118.99" y="22.74" width="3.88" height="0.86"/><rect class="cls-1" x="135.35" y="21.32" width="0.91" height="3.71"/><rect class="cls-1" x="133.87" y="22.74" width="3.88" height="0.86"/><path class="cls-1" d="M2.17,4.57A2.29,2.29,0,1,1,4.56,2.28,2.35,2.35,0,0,1,2.17,4.57Zm0-3.71A1.43,1.43,0,1,0,3.66,2.28,1.45,1.45,0,0,0,2.17.86Z" transform="translate(0 0.01)"/><path class="cls-1" d="M11.13,11.65h-3a.91.91,0,0,1-.93-.88V8a.91.91,0,0,1,.93-.88h3a.91.91,0,0,1,.93.88v2.8A.91.91,0,0,1,11.13,11.65ZM8.15,8v2.82h3V8Z" transform="translate(0 0.01)"/><path class="cls-1" d="M17.05,4.57a2.29,2.29,0,1,1,2.39-2.29A2.36,2.36,0,0,1,17.05,4.57Zm0-3.71a1.43,1.43,0,1,0,1.48,1.42A1.45,1.45,0,0,0,17.05.86Z" transform="translate(0 0.01)"/><rect class="cls-1" x="1.72" y="7.52" width="0.91" height="3.71"/><rect class="cls-1" x="0.23" y="8.95" width="3.88" height="0.86"/><rect class="cls-1" x="16.6" y="7.52" width="0.91" height="3.71"/><rect class="cls-1" x="15.11" y="8.95" width="3.88" height="0.86"/><path class="cls-1" d="M24.24,11.65a2.28,2.28,0,1,1,2.4-2.28A2.35,2.35,0,0,1,24.24,11.65Zm0-3.7a1.42,1.42,0,1,0,1.49,1.42A1.44,1.44,0,0,0,24.26,8Z" transform="translate(0 0.01)"/><path class="cls-1" d="M31.63,4.57a2.28,2.28,0,0,1-2.16-2.4A2.28,2.28,0,0,1,34,2.28,2.36,2.36,0,0,1,31.63,4.57Zm0-3.71a1.43,1.43,0,1,0,1.48,1.42A1.45,1.45,0,0,0,31.63.86Z" transform="translate(0 0.01)"/><path class="cls-1" d="M46.5,11.65a2.28,2.28,0,1,1,2.4-2.28A2.35,2.35,0,0,1,46.5,11.65Zm0-3.7a1.42,1.42,0,0,0,.16,2.84A1.42,1.42,0,0,0,46.52,8Z" transform="translate(0 0.01)"/><path class="cls-1" d="M40.59,11.65H37.66a.9.9,0,0,1-.92-.88V8a.9.9,0,0,1,.92-.88h2.93a.9.9,0,0,1,.92.88h0v2.8a.89.89,0,0,1-.91.88ZM37.66,8v2.82h3V8Z" transform="translate(0 0.01)"/><path class="cls-1" d="M48,11.65H45a.9.9,0,0,1-.92-.88V8A.9.9,0,0,1,45,7.09H48A.91.91,0,0,1,48.9,8v2.8A.91.91,0,0,1,48,11.65ZM45,8v2.82h3V8Z" transform="translate(0 0.01)"/><path class="cls-1" d="M69,4.57a2.29,2.29,0,1,1,2.39-2.29A2.36,2.36,0,0,1,69,4.57ZM69,.86a1.43,1.43,0,1,0,1.49,1.42A1.47,1.47,0,0,0,69,.86Z" transform="translate(0 0.01)"/><path class="cls-1" d="M70.51,4.57h-3a.9.9,0,0,1-.92-.89h0V.88A.9.9,0,0,1,67.52,0h3a.91.91,0,0,1,.92.88v2.8a.9.9,0,0,1-.92.89Zm-3-3.71V3.68h3V.88Z" transform="translate(0 0.01)"/><path class="cls-1" d="M25.71,4.57H22.78a.92.92,0,0,1-.93-.89h0V.88A.91.91,0,0,1,22.78,0h2.93a.91.91,0,0,1,.93.88v2.8a.91.91,0,0,1-.93.89ZM22.78.86V3.68h3V.88Z" transform="translate(0 0.01)"/><path class="cls-1" d="M46.5,4.57a2.29,2.29,0,1,1,2.4-2.29,2.34,2.34,0,0,1-2.4,2.29Zm0-3.71A1.43,1.43,0,1,0,48,2.28,1.46,1.46,0,0,0,46.5.86Z" transform="translate(0 0.01)"/><rect class="cls-1" x="38.67" y="0.44" width="0.91" height="3.71"/><rect class="cls-1" x="37.18" y="1.86" width="3.88" height="0.86"/><path class="cls-1" d="M55.61,11.65H52.75a.91.91,0,0,1-.93-.89V8a.91.91,0,0,1,.93-.89h2.9a.92.92,0,0,1,.94.89v2.78a.92.92,0,0,1-.94.89ZM52.71,8v2.81h3V8Z" transform="translate(0 0.01)"/><path class="cls-1" d="M61.54,4.57a2.29,2.29,0,1,1,2.39-2.29A2.34,2.34,0,0,1,61.54,4.57Zm0-3.71A1.43,1.43,0,1,0,63,2.28,1.48,1.48,0,0,0,61.54.86Z" transform="translate(0 0.01)"/><path class="cls-1" d="M70.51,11.65h-3a.9.9,0,0,1-.92-.88V8a.9.9,0,0,1,.92-.88h3a.91.91,0,0,1,.92.88v2.8A.91.91,0,0,1,70.51,11.65Zm-3-3.7v2.82h3V8Z" transform="translate(0 0.01)"/><path class="cls-1" d="M76.42,4.57a2.29,2.29,0,1,1,2.39-2.29A2.34,2.34,0,0,1,76.42,4.57Zm0-3.71a1.43,1.43,0,1,0,1.5,1.42A1.46,1.46,0,0,0,76.43.86Z" transform="translate(0 0.01)"/><rect class="cls-1" x="53.72" y="0.44" width="0.91" height="3.71"/><rect class="cls-1" x="52.22" y="1.86" width="3.88" height="0.86"/><rect class="cls-1" x="61.1" y="7.52" width="0.91" height="3.71"/><rect class="cls-1" x="59.6" y="8.95" width="3.88" height="0.86"/><rect class="cls-1" x="75.98" y="7.52" width="0.91" height="3.71"/><rect class="cls-1" x="74.48" y="8.95" width="3.88" height="0.86"/><path class="cls-1" d="M83.59,11.65a2.28,2.28,0,0,1,.24-4.55A2.26,2.26,0,0,1,86,9.37,2.33,2.33,0,0,1,83.59,11.65Zm0-3.7a1.42,1.42,0,1,0,1.48,1.42A1.46,1.46,0,0,0,83.59,8Z" transform="translate(0 0.01)"/><path class="cls-1" d="M105.89,11.65a2.28,2.28,0,1,1,2.39-2.28,2.35,2.35,0,0,1-2.39,2.28Zm0-3.7a1.42,1.42,0,0,0,.16,2.84,1.43,1.43,0,0,0,1.33-1.42A1.45,1.45,0,0,0,105.89,8Z" transform="translate(0 0.01)"/><path class="cls-1" d="M100,11.65H97a.91.91,0,0,1-.93-.88V8A.91.91,0,0,1,97,7.09h3a.9.9,0,0,1,.92.88v2.8A.9.9,0,0,1,100,11.65ZM97,8v2.82h3V8Z" transform="translate(0 0.01)"/><path class="cls-1" d="M107.35,11.65h-2.93a.9.9,0,0,1-.92-.88h0V8a.9.9,0,0,1,.92-.88h2.93a.91.91,0,0,1,.93.88v2.8A.91.91,0,0,1,107.35,11.65ZM104.42,8v2.82h3V8Z" transform="translate(0 0.01)"/><path class="cls-1" d="M105.89,4.57a2.29,2.29,0,1,1,2.39-2.29A2.35,2.35,0,0,1,105.89,4.57Zm0-3.71a1.43,1.43,0,1,0,1.49,1.42A1.45,1.45,0,0,0,105.89.86Z" transform="translate(0 0.01)"/><rect class="cls-1" x="98.06" y="0.44" width="0.91" height="3.71"/><rect class="cls-1" x="96.57" y="1.86" width="3.88" height="0.86"/><rect class="cls-1" x="90.56" y="7.52" width="0.91" height="3.71"/><rect class="cls-1" x="89.07" y="8.95" width="3.88" height="0.86"/><path class="cls-1" d="M115,11.65h-2.9a.92.92,0,0,1-.94-.89V8a.92.92,0,0,1,.94-.89H115a.91.91,0,0,1,.93.89v2.78A.91.91,0,0,1,115,11.65ZM112.09,8v2.81h3V8Z" transform="translate(0 0.01)"/><rect class="cls-1" x="120.47" y="7.52" width="0.91" height="3.71"/><rect class="cls-1" x="118.99" y="8.95" width="3.88" height="0.86"/></g></svg>